<svg width="30" height="8" viewBox="0 0 30 8" fill="none" xmlns="http://www.w3.org/2000/svg">
<path fill-rule="evenodd" clip-rule="evenodd" d="M4.09542 0.5L0.914307 7.74674H4.72254L5.19465 6.59131H6.27379L6.7459 7.74674H10.9377V6.86488L11.3112 7.74674H13.4795L13.8531 6.84624V7.74674H22.5709L23.6309 6.62132L24.6235 7.74674L29.1011 7.75606L25.91 4.1436L29.1011 0.5H24.6929L23.661 1.60463L22.6997 0.5H13.2159L12.4015 2.37045L11.568 0.5H7.76774V1.35186L7.34498 0.5H4.09542ZM4.83229 1.52905H6.6886L8.79863 6.44311V1.52905H10.8322L12.4619 5.0524L13.9639 1.52905H15.9873V6.72906H14.7561L14.746 2.65436L12.9511 6.72906H11.8498L10.0448 2.65436V6.72906H7.51203L7.03187 5.56329H4.43769L3.95851 6.72804H2.60147L4.83229 1.52905ZM22.1198 1.52905H17.1137V6.726H22.0423L23.6309 5.00364L25.1621 6.726H26.7627L24.4362 4.14258L26.7627 1.52905H25.2315L23.651 3.23162L22.1198 1.52905ZM5.73532 2.40886L4.88064 4.4856H6.58901L5.73532 2.40886ZM18.3499 3.55497V2.60571V2.6048H21.4736L22.8366 4.12291L21.4132 5.64932H18.3499V4.613H21.081V3.55497H18.3499Z" fill="white"/>
</svg>
