<svg width="136" height="48" viewBox="0 0 136 48" fill="none" xmlns="http://www.w3.org/2000/svg">
<g filter="url(#filter0_d_1256_4041)">
<rect x="2" y="1" width="132" height="44" rx="20" fill="url(#paint0_linear_1256_4041)"/>
<rect x="2.5" y="1.5" width="131" height="43" rx="19.5" stroke="url(#paint1_linear_1256_4041)"/>
<path d="M21.1477 17.3636H23.7273L27.1818 25.7955H27.3182L30.7727 17.3636H33.3523V29H31.3295V21.0057H31.2216L28.0057 28.9659H26.4943L23.2784 20.9886H23.1705V29H21.1477V17.3636ZM35.5568 29V20.2727H37.6136V29H35.5568ZM36.5909 19.0341C36.2652 19.0341 35.9848 18.9261 35.75 18.7102C35.5152 18.4905 35.3977 18.2273 35.3977 17.9205C35.3977 17.6098 35.5152 17.3466 35.75 17.1307C35.9848 16.911 36.2652 16.8011 36.5909 16.8011C36.9205 16.8011 37.2008 16.911 37.4318 17.1307C37.6667 17.3466 37.7841 17.6098 37.7841 17.9205C37.7841 18.2273 37.6667 18.4905 37.4318 18.7102C37.2008 18.9261 36.9205 19.0341 36.5909 19.0341ZM41.7855 23.8864V29H39.7287V20.2727H41.6946V21.7557H41.7969C41.9976 21.267 42.3177 20.8788 42.7571 20.5909C43.2003 20.303 43.7476 20.1591 44.3991 20.1591C45.0014 20.1591 45.526 20.2879 45.973 20.5455C46.4238 20.803 46.7723 21.1761 47.0185 21.6648C47.2685 22.1534 47.3916 22.7462 47.3878 23.4432V29H45.331V23.7614C45.331 23.178 45.1795 22.7216 44.8764 22.392C44.5772 22.0625 44.1624 21.8977 43.6321 21.8977C43.2723 21.8977 42.9522 21.9773 42.6719 22.1364C42.3954 22.2917 42.1776 22.517 42.0185 22.8125C41.8632 23.108 41.7855 23.4659 41.7855 23.8864ZM51.5355 23.8864V29H49.4787V17.3636H51.4901V21.7557H51.5923C51.7969 21.2633 52.1132 20.875 52.5412 20.5909C52.973 20.303 53.5223 20.1591 54.1889 20.1591C54.795 20.1591 55.3234 20.286 55.7741 20.5398C56.2249 20.7936 56.5734 21.1648 56.8196 21.6534C57.0696 22.142 57.1946 22.7386 57.1946 23.4432V29H55.1378V23.7614C55.1378 23.1742 54.9863 22.7178 54.6832 22.392C54.384 22.0625 53.9635 21.8977 53.4219 21.8977C53.0582 21.8977 52.7325 21.9773 52.4446 22.1364C52.1605 22.2917 51.937 22.517 51.7741 22.8125C51.6151 23.108 51.5355 23.4659 51.5355 23.8864ZM61.8026 29.1761C61.2495 29.1761 60.7514 29.0777 60.3082 28.8807C59.8688 28.6799 59.5204 28.3845 59.2628 27.9943C59.009 27.6042 58.8821 27.1231 58.8821 26.5511C58.8821 26.0587 58.973 25.6515 59.1548 25.3295C59.3366 25.0076 59.5848 24.75 59.8991 24.5568C60.2135 24.3636 60.5677 24.2178 60.9616 24.1193C61.3594 24.017 61.7704 23.9432 62.1946 23.8977C62.706 23.8447 63.1207 23.7973 63.4389 23.7557C63.7571 23.7102 63.9882 23.642 64.1321 23.5511C64.2798 23.4564 64.3537 23.3106 64.3537 23.1136V23.0795C64.3537 22.6515 64.2268 22.3201 63.973 22.0852C63.7192 21.8504 63.3537 21.733 62.8764 21.733C62.3726 21.733 61.973 21.8428 61.6776 22.0625C61.3859 22.2822 61.1889 22.5417 61.0866 22.8409L59.1662 22.5682C59.3177 22.0379 59.5677 21.5947 59.9162 21.2386C60.2647 20.8788 60.6908 20.6098 61.1946 20.4318C61.6984 20.25 62.2552 20.1591 62.8651 20.1591C63.2855 20.1591 63.7041 20.2083 64.1207 20.3068C64.5374 20.4053 64.9181 20.5682 65.2628 20.7955C65.6075 21.0189 65.884 21.3239 66.0923 21.7102C66.3045 22.0966 66.4105 22.5795 66.4105 23.1591V29H64.4332V27.8011H64.3651C64.2401 28.0436 64.0639 28.2708 63.8366 28.483C63.6132 28.6913 63.331 28.8598 62.9901 28.9886C62.6529 29.1136 62.2571 29.1761 61.8026 29.1761ZM62.3366 27.6648C62.7495 27.6648 63.1075 27.5833 63.4105 27.4205C63.7135 27.2538 63.9465 27.0341 64.1094 26.7614C64.276 26.4886 64.3594 26.1913 64.3594 25.8693V24.8409C64.295 24.8939 64.1851 24.9432 64.0298 24.9886C63.8783 25.0341 63.7079 25.0739 63.5185 25.108C63.3291 25.142 63.1416 25.1723 62.956 25.1989C62.7704 25.2254 62.6094 25.2481 62.473 25.267C62.1662 25.3087 61.8916 25.3769 61.6491 25.4716C61.4067 25.5663 61.2154 25.6989 61.0753 25.8693C60.9351 26.036 60.8651 26.2519 60.8651 26.517C60.8651 26.8958 61.0033 27.1818 61.2798 27.375C61.5563 27.5682 61.9086 27.6648 62.3366 27.6648ZM76.2543 29.1705C75.383 29.1705 74.6349 28.9792 74.0099 28.5966C73.3887 28.214 72.9096 27.6856 72.5724 27.0114C72.2391 26.3333 72.0724 25.553 72.0724 24.6705C72.0724 23.7841 72.2429 23.0019 72.5838 22.3239C72.9247 21.642 73.4058 21.1117 74.027 20.733C74.652 20.3504 75.3906 20.1591 76.2429 20.1591C76.9512 20.1591 77.5781 20.2898 78.1236 20.5511C78.6728 20.8087 79.1103 21.1742 79.4361 21.6477C79.7618 22.1174 79.9474 22.6667 79.9929 23.2955H78.027C77.9474 22.875 77.758 22.5246 77.4588 22.2443C77.1634 21.9602 76.7675 21.8182 76.2713 21.8182C75.8509 21.8182 75.4815 21.9318 75.1634 22.1591C74.8452 22.3826 74.5971 22.7045 74.419 23.125C74.2448 23.5455 74.1577 24.0492 74.1577 24.6364C74.1577 25.2311 74.2448 25.7424 74.419 26.1705C74.5933 26.5947 74.8376 26.9223 75.152 27.1534C75.4702 27.3807 75.8433 27.4943 76.2713 27.4943C76.5743 27.4943 76.8452 27.4375 77.0838 27.3239C77.3262 27.2064 77.5289 27.0379 77.6918 26.8182C77.8546 26.5985 77.9664 26.3314 78.027 26.017H79.9929C79.9437 26.6345 79.7618 27.1818 79.4474 27.6591C79.133 28.1326 78.705 28.5038 78.1634 28.7727C77.6217 29.0379 76.9853 29.1705 76.2543 29.1705ZM85.4886 29.1705C84.6364 29.1705 83.8977 28.983 83.2727 28.608C82.6477 28.233 82.1629 27.7083 81.8182 27.0341C81.4773 26.3598 81.3068 25.572 81.3068 24.6705C81.3068 23.7689 81.4773 22.9792 81.8182 22.3011C82.1629 21.6231 82.6477 21.0966 83.2727 20.7216C83.8977 20.3466 84.6364 20.1591 85.4886 20.1591C86.3409 20.1591 87.0795 20.3466 87.7045 20.7216C88.3295 21.0966 88.8125 21.6231 89.1534 22.3011C89.4981 22.9792 89.6705 23.7689 89.6705 24.6705C89.6705 25.572 89.4981 26.3598 89.1534 27.0341C88.8125 27.7083 88.3295 28.233 87.7045 28.608C87.0795 28.983 86.3409 29.1705 85.4886 29.1705ZM85.5 27.5227C85.9621 27.5227 86.3485 27.3958 86.6591 27.142C86.9697 26.8845 87.2008 26.5398 87.3523 26.108C87.5076 25.6761 87.5852 25.1951 87.5852 24.6648C87.5852 24.1307 87.5076 23.6477 87.3523 23.2159C87.2008 22.7803 86.9697 22.4337 86.6591 22.1761C86.3485 21.9186 85.9621 21.7898 85.5 21.7898C85.0265 21.7898 84.6326 21.9186 84.3182 22.1761C84.0076 22.4337 83.7746 22.7803 83.6193 23.2159C83.4678 23.6477 83.392 24.1307 83.392 24.6648C83.392 25.1951 83.4678 25.6761 83.6193 26.108C83.7746 26.5398 84.0076 26.8845 84.3182 27.142C84.6326 27.3958 85.0265 27.5227 85.5 27.5227ZM93.473 23.8864V29H91.4162V20.2727H93.3821V21.7557H93.4844C93.6851 21.267 94.0052 20.8788 94.4446 20.5909C94.8878 20.303 95.4351 20.1591 96.0866 20.1591C96.6889 20.1591 97.2135 20.2879 97.6605 20.5455C98.1113 20.803 98.4598 21.1761 98.706 21.6648C98.956 22.1534 99.0791 22.7462 99.0753 23.4432V29H97.0185V23.7614C97.0185 23.178 96.867 22.7216 96.5639 22.392C96.2647 22.0625 95.8499 21.8977 95.3196 21.8977C94.9598 21.8977 94.6397 21.9773 94.3594 22.1364C94.0829 22.2917 93.8651 22.517 93.706 22.8125C93.5507 23.108 93.473 23.4659 93.473 23.8864ZM105.524 20.2727V21.8636H100.507V20.2727H105.524ZM101.746 18.1818H103.803V26.375C103.803 26.6515 103.844 26.8636 103.928 27.0114C104.015 27.1553 104.128 27.2538 104.268 27.3068C104.409 27.3598 104.564 27.3864 104.734 27.3864C104.863 27.3864 104.981 27.3769 105.087 27.358C105.196 27.339 105.28 27.322 105.337 27.3068L105.683 28.9148C105.573 28.9527 105.416 28.9943 105.212 29.0398C105.011 29.0852 104.765 29.1117 104.473 29.1193C103.958 29.1345 103.494 29.0568 103.081 28.8864C102.668 28.7121 102.34 28.4432 102.098 28.0795C101.859 27.7159 101.742 27.2614 101.746 26.7159V18.1818ZM109.756 29.1761C109.203 29.1761 108.705 29.0777 108.261 28.8807C107.822 28.6799 107.473 28.3845 107.216 27.9943C106.962 27.6042 106.835 27.1231 106.835 26.5511C106.835 26.0587 106.926 25.6515 107.108 25.3295C107.29 25.0076 107.538 24.75 107.852 24.5568C108.167 24.3636 108.521 24.2178 108.915 24.1193C109.313 24.017 109.723 23.9432 110.148 23.8977C110.659 23.8447 111.074 23.7973 111.392 23.7557C111.71 23.7102 111.941 23.642 112.085 23.5511C112.233 23.4564 112.307 23.3106 112.307 23.1136V23.0795C112.307 22.6515 112.18 22.3201 111.926 22.0852C111.672 21.8504 111.307 21.733 110.83 21.733C110.326 21.733 109.926 21.8428 109.631 22.0625C109.339 22.2822 109.142 22.5417 109.04 22.8409L107.119 22.5682C107.271 22.0379 107.521 21.5947 107.869 21.2386C108.218 20.8788 108.644 20.6098 109.148 20.4318C109.652 20.25 110.208 20.1591 110.818 20.1591C111.239 20.1591 111.657 20.2083 112.074 20.3068C112.491 20.4053 112.871 20.5682 113.216 20.7955C113.561 21.0189 113.837 21.3239 114.045 21.7102C114.258 22.0966 114.364 22.5795 114.364 23.1591V29H112.386V27.8011H112.318C112.193 28.0436 112.017 28.2708 111.79 28.483C111.566 28.6913 111.284 28.8598 110.943 28.9886C110.606 29.1136 110.21 29.1761 109.756 29.1761ZM110.29 27.6648C110.703 27.6648 111.061 27.5833 111.364 27.4205C111.667 27.2538 111.9 27.0341 112.062 26.7614C112.229 26.4886 112.312 26.1913 112.312 25.8693V24.8409C112.248 24.8939 112.138 24.9432 111.983 24.9886C111.831 25.0341 111.661 25.0739 111.472 25.108C111.282 25.142 111.095 25.1723 110.909 25.1989C110.723 25.2254 110.563 25.2481 110.426 25.267C110.119 25.3087 109.845 25.3769 109.602 25.4716C109.36 25.5663 109.169 25.6989 109.028 25.8693C108.888 26.036 108.818 26.2519 108.818 26.517C108.818 26.8958 108.956 27.1818 109.233 27.375C109.509 27.5682 109.862 27.6648 110.29 27.6648Z" fill="white"/>
</g>
<defs>
<filter id="filter0_d_1256_4041" x="0" y="0" width="136" height="48" filterUnits="userSpaceOnUse" color-interpolation-filters="sRGB">
<feFlood flood-opacity="0" result="BackgroundImageFix"/>
<feColorMatrix in="SourceAlpha" type="matrix" values="0 0 0 0 0 0 0 0 0 0 0 0 0 0 0 0 0 0 127 0" result="hardAlpha"/>
<feOffset dy="1"/>
<feGaussianBlur stdDeviation="1"/>
<feColorMatrix type="matrix" values="0 0 0 0 0.0627451 0 0 0 0 0.0941176 0 0 0 0 0.156863 0 0 0 0.05 0"/>
<feBlend mode="normal" in2="BackgroundImageFix" result="effect1_dropShadow_1256_4041"/>
<feBlend mode="normal" in="SourceGraphic" in2="effect1_dropShadow_1256_4041" result="shape"/>
</filter>
<linearGradient id="paint0_linear_1256_4041" x1="2" y1="1" x2="134" y2="1" gradientUnits="userSpaceOnUse">
<stop stop-color="#629E3A"/>
<stop offset="1" stop-color="#0E804B"/>
</linearGradient>
<linearGradient id="paint1_linear_1256_4041" x1="2" y1="1" x2="134" y2="1" gradientUnits="userSpaceOnUse">
<stop stop-color="#629E3A"/>
<stop offset="1" stop-color="#0E804B"/>
</linearGradient>
</defs>
</svg>
