<svg width="357" height="48" viewBox="0 0 357 48" fill="none" xmlns="http://www.w3.org/2000/svg">
<g filter="url(#filter0_d_1256_6462)">
<rect x="2.5" y="1" width="352" height="44" rx="22" fill="url(#paint0_linear_1256_6462)"/>
<rect x="3" y="1.5" width="351" height="43" rx="21.5" stroke="url(#paint1_linear_1256_6462)"/>
<path d="M148.5 30.5L144.875 26.875M146.833 22.1667C146.833 25.8486 143.849 28.8333 140.167 28.8333C136.485 28.8333 133.5 25.8486 133.5 22.1667C133.5 18.4848 136.485 15.5 140.167 15.5C143.849 15.5 146.833 18.4848 146.833 22.1667Z" stroke="white" stroke-width="1.67" stroke-linecap="round" stroke-linejoin="round"/>
<path d="M160.148 29V17.3636H164.511C165.405 17.3636 166.155 17.5303 166.761 17.8636C167.371 18.197 167.831 18.6553 168.142 19.2386C168.456 19.8182 168.614 20.4773 168.614 21.2159C168.614 21.9621 168.456 22.625 168.142 23.2045C167.828 23.7841 167.364 24.2405 166.75 24.5739C166.136 24.9034 165.381 25.0682 164.483 25.0682H161.591V23.3352H164.199C164.722 23.3352 165.15 23.2443 165.483 23.0625C165.816 22.8807 166.063 22.6307 166.222 22.3125C166.384 21.9943 166.466 21.6288 166.466 21.2159C166.466 20.803 166.384 20.4394 166.222 20.125C166.063 19.8106 165.814 19.5663 165.477 19.392C165.144 19.214 164.714 19.125 164.188 19.125H162.256V29H160.148ZM170.354 29V20.2727H172.348V21.7273H172.439C172.598 21.2235 172.871 20.8352 173.257 20.5625C173.647 20.286 174.092 20.1477 174.592 20.1477C174.706 20.1477 174.833 20.1534 174.973 20.1648C175.117 20.1723 175.236 20.1856 175.331 20.2045V22.0966C175.244 22.0663 175.106 22.0398 174.916 22.017C174.731 21.9905 174.551 21.9773 174.376 21.9773C174.001 21.9773 173.664 22.0587 173.365 22.2216C173.07 22.3807 172.837 22.6023 172.666 22.8864C172.496 23.1705 172.411 23.4981 172.411 23.8693V29H170.354ZM180.145 29.1705C179.293 29.1705 178.554 28.983 177.929 28.608C177.304 28.233 176.819 27.7083 176.474 27.0341C176.134 26.3598 175.963 25.572 175.963 24.6705C175.963 23.7689 176.134 22.9792 176.474 22.3011C176.819 21.6231 177.304 21.0966 177.929 20.7216C178.554 20.3466 179.293 20.1591 180.145 20.1591C180.997 20.1591 181.736 20.3466 182.361 20.7216C182.986 21.0966 183.469 21.6231 183.81 22.3011C184.154 22.9792 184.327 23.7689 184.327 24.6705C184.327 25.572 184.154 26.3598 183.81 27.0341C183.469 27.7083 182.986 28.233 182.361 28.608C181.736 28.983 180.997 29.1705 180.145 29.1705ZM180.156 27.5227C180.618 27.5227 181.005 27.3958 181.315 27.142C181.626 26.8845 181.857 26.5398 182.009 26.108C182.164 25.6761 182.241 25.1951 182.241 24.6648C182.241 24.1307 182.164 23.6477 182.009 23.2159C181.857 22.7803 181.626 22.4337 181.315 22.1761C181.005 21.9186 180.618 21.7898 180.156 21.7898C179.683 21.7898 179.289 21.9186 178.974 22.1761C178.664 22.4337 178.431 22.7803 178.276 23.2159C178.124 23.6477 178.048 24.1307 178.048 24.6648C178.048 25.1951 178.124 25.6761 178.276 26.108C178.431 26.5398 178.664 26.8845 178.974 27.142C179.289 27.3958 179.683 27.5227 180.156 27.5227ZM189.879 29.1705C189.008 29.1705 188.26 28.9792 187.635 28.5966C187.014 28.214 186.535 27.6856 186.197 27.0114C185.864 26.3333 185.697 25.553 185.697 24.6705C185.697 23.7841 185.868 23.0019 186.209 22.3239C186.55 21.642 187.031 21.1117 187.652 20.733C188.277 20.3504 189.016 20.1591 189.868 20.1591C190.576 20.1591 191.203 20.2898 191.749 20.5511C192.298 20.8087 192.735 21.1742 193.061 21.6477C193.387 22.1174 193.572 22.6667 193.618 23.2955H191.652C191.572 22.875 191.383 22.5246 191.084 22.2443C190.788 21.9602 190.393 21.8182 189.896 21.8182C189.476 21.8182 189.107 21.9318 188.788 22.1591C188.47 22.3826 188.222 22.7045 188.044 23.125C187.87 23.5455 187.783 24.0492 187.783 24.6364C187.783 25.2311 187.87 25.7424 188.044 26.1705C188.218 26.5947 188.463 26.9223 188.777 27.1534C189.095 27.3807 189.468 27.4943 189.896 27.4943C190.199 27.4943 190.47 27.4375 190.709 27.3239C190.951 27.2064 191.154 27.0379 191.317 26.8182C191.48 26.5985 191.591 26.3314 191.652 26.017H193.618C193.569 26.6345 193.387 27.1818 193.072 27.6591C192.758 28.1326 192.33 28.5038 191.788 28.7727C191.247 29.0379 190.61 29.1705 189.879 29.1705ZM200.869 25.3295V20.2727H202.926V29H200.932V27.4489H200.841C200.644 27.9375 200.32 28.3371 199.869 28.6477C199.422 28.9583 198.871 29.1136 198.216 29.1136C197.644 29.1136 197.138 28.9867 196.699 28.733C196.263 28.4754 195.922 28.1023 195.676 27.6136C195.43 27.1212 195.307 26.5265 195.307 25.8295V20.2727H197.364V25.5114C197.364 26.0644 197.515 26.5038 197.818 26.8295C198.121 27.1553 198.519 27.3182 199.011 27.3182C199.314 27.3182 199.608 27.2443 199.892 27.0966C200.176 26.9489 200.409 26.7292 200.591 26.4375C200.777 26.142 200.869 25.7727 200.869 25.3295ZM205.041 29V20.2727H207.036V21.7273H207.126C207.286 21.2235 207.558 20.8352 207.945 20.5625C208.335 20.286 208.78 20.1477 209.28 20.1477C209.393 20.1477 209.52 20.1534 209.661 20.1648C209.804 20.1723 209.924 20.1856 210.018 20.2045V22.0966C209.931 22.0663 209.793 22.0398 209.604 22.017C209.418 21.9905 209.238 21.9773 209.064 21.9773C208.689 21.9773 208.352 22.0587 208.053 22.2216C207.757 22.3807 207.524 22.6023 207.354 22.8864C207.183 23.1705 207.098 23.4981 207.098 23.8693V29H205.041ZM213.74 29.1761C213.187 29.1761 212.689 29.0777 212.246 28.8807C211.806 28.6799 211.458 28.3845 211.2 27.9943C210.946 27.6042 210.82 27.1231 210.82 26.5511C210.82 26.0587 210.911 25.6515 211.092 25.3295C211.274 25.0076 211.522 24.75 211.837 24.5568C212.151 24.3636 212.505 24.2178 212.899 24.1193C213.297 24.017 213.708 23.9432 214.132 23.8977C214.643 23.8447 215.058 23.7973 215.376 23.7557C215.695 23.7102 215.926 23.642 216.07 23.5511C216.217 23.4564 216.291 23.3106 216.291 23.1136V23.0795C216.291 22.6515 216.164 22.3201 215.911 22.0852C215.657 21.8504 215.291 21.733 214.814 21.733C214.31 21.733 213.911 21.8428 213.615 22.0625C213.323 22.2822 213.126 22.5417 213.024 22.8409L211.104 22.5682C211.255 22.0379 211.505 21.5947 211.854 21.2386C212.202 20.8788 212.628 20.6098 213.132 20.4318C213.636 20.25 214.193 20.1591 214.803 20.1591C215.223 20.1591 215.642 20.2083 216.058 20.3068C216.475 20.4053 216.856 20.5682 217.2 20.7955C217.545 21.0189 217.821 21.3239 218.03 21.7102C218.242 22.0966 218.348 22.5795 218.348 23.1591V29H216.371V27.8011H216.303C216.178 28.0436 216.001 28.2708 215.774 28.483C215.551 28.6913 215.268 28.8598 214.928 28.9886C214.59 29.1136 214.195 29.1761 213.74 29.1761ZM214.274 27.6648C214.687 27.6648 215.045 27.5833 215.348 27.4205C215.651 27.2538 215.884 27.0341 216.047 26.7614C216.214 26.4886 216.297 26.1913 216.297 25.8693V24.8409C216.232 24.8939 216.123 24.9432 215.967 24.9886C215.816 25.0341 215.645 25.0739 215.456 25.108C215.267 25.142 215.079 25.1723 214.893 25.1989C214.708 25.2254 214.547 25.2481 214.411 25.267C214.104 25.3087 213.829 25.3769 213.587 25.4716C213.344 25.5663 213.153 25.6989 213.013 25.8693C212.873 26.036 212.803 26.2519 212.803 26.517C212.803 26.8958 212.941 27.1818 213.217 27.375C213.494 27.5682 213.846 27.6648 214.274 27.6648ZM220.416 29V20.2727H222.411V21.7273H222.501C222.661 21.2235 222.933 20.8352 223.32 20.5625C223.71 20.286 224.155 20.1477 224.655 20.1477C224.768 20.1477 224.895 20.1534 225.036 20.1648C225.179 20.1723 225.299 20.1856 225.393 20.2045V22.0966C225.306 22.0663 225.168 22.0398 224.979 22.017C224.793 21.9905 224.613 21.9773 224.439 21.9773C224.064 21.9773 223.727 22.0587 223.428 22.2216C223.132 22.3807 222.899 22.6023 222.729 22.8864C222.558 23.1705 222.473 23.4981 222.473 23.8693V29H220.416Z" fill="white"/>
</g>
<defs>
<filter id="filter0_d_1256_6462" x="0.5" y="0" width="356" height="48" filterUnits="userSpaceOnUse" color-interpolation-filters="sRGB">
<feFlood flood-opacity="0" result="BackgroundImageFix"/>
<feColorMatrix in="SourceAlpha" type="matrix" values="0 0 0 0 0 0 0 0 0 0 0 0 0 0 0 0 0 0 127 0" result="hardAlpha"/>
<feOffset dy="1"/>
<feGaussianBlur stdDeviation="1"/>
<feColorMatrix type="matrix" values="0 0 0 0 0.0627451 0 0 0 0 0.0941176 0 0 0 0 0.156863 0 0 0 0.05 0"/>
<feBlend mode="normal" in2="BackgroundImageFix" result="effect1_dropShadow_1256_6462"/>
<feBlend mode="normal" in="SourceGraphic" in2="effect1_dropShadow_1256_6462" result="shape"/>
</filter>
<linearGradient id="paint0_linear_1256_6462" x1="2.5" y1="1" x2="354.5" y2="1" gradientUnits="userSpaceOnUse">
<stop stop-color="#629E3A"/>
<stop offset="1" stop-color="#0E804B"/>
</linearGradient>
<linearGradient id="paint1_linear_1256_6462" x1="2.49452" y1="44.9997" x2="13.3253" y2="-41.6467" gradientUnits="userSpaceOnUse">
<stop stop-color="#095F36"/>
<stop offset="1" stop-color="#0E804B"/>
</linearGradient>
</defs>
</svg>
