<svg width="332" height="97" viewBox="0 0 332 97" fill="none" xmlns="http://www.w3.org/2000/svg">
<path fill-rule="evenodd" clip-rule="evenodd" d="M207.649 41.2224C214.289 41.2224 219.702 35.8009 219.702 29.1505C219.702 22.5001 214.289 17.0787 207.649 17.0787C201.01 17.0787 195.597 22.5001 195.597 29.1505C195.597 35.8009 201.01 41.2224 207.649 41.2224Z" fill="url(#paint0_linear_737_4154)"/>
<path fill-rule="evenodd" clip-rule="evenodd" d="M264.241 53.5493C259.829 52.7191 258.643 50.3539 256.268 51.0078C254.721 51.4345 253.758 52.8397 253.457 53.2757C252.721 54.3516 252.697 54.3512 252.128 55.8032C251.841 56.5359 251.508 58.6878 251.74 59.4901C251.892 60.0281 252.226 60.4038 252.467 60.6264C255.481 61.8461 264.89 65.2733 273.141 61.9759C276.419 60.6635 277.869 58.9475 278.341 58.34C280.346 55.7615 281.508 51.6942 280.281 48.2855C278.123 42.2844 269.886 42.02 269.955 38.3053C269.997 35.8937 273.766 34.2288 273.988 34.1314C276.012 33.2502 278.003 33.4867 280.374 33.7696C283.93 34.1917 285.671 35.2259 286.879 34.1685C287.5 33.6259 287.75 32.7354 287.884 32.2578C288.208 31.0937 288.083 29.976 287.893 29.4149C286.986 26.7204 281.161 26.354 277.841 26.1453C275.97 26.0294 272.937 25.9876 269.363 26.7528C264.941 27.6989 262.991 29.1691 262.255 29.7766C261.982 29.9992 261.792 30.1801 261.741 30.2265C260.491 31.372 257.828 34.2195 258.051 38.0595C258.208 40.8282 259.801 42.7992 260.264 43.3418C263.612 47.2606 268.15 46.0038 269.414 49.1945C269.937 50.507 269.756 52.2044 268.872 53.0948C267.765 54.2125 265.774 53.8368 264.251 53.5493H264.241ZM231.273 41.3337C229.718 44.9418 228.708 49.5145 230.255 52.8675C231.496 55.4971 234.158 55.2977 236.098 53.4426C238.284 51.4623 239.752 48.4618 240.599 45.6003C244.15 32.6891 236.899 29.1412 231.324 41.2224L231.278 41.3337H231.273ZM236.728 26.1963C231.084 26.7992 225.398 28.3297 222.041 32.9812C218.739 37.285 216.276 44.5893 216.331 50.4142C216.452 54.231 217.382 57.9504 219.799 60.1997C221.439 61.4982 223.592 61.4936 225.62 61.5029C227.648 61.4751 230.097 61.489 233.042 61.3081C236.973 61.053 241.006 60.5058 244.41 58.4049C254.615 52.4177 260.153 33.7047 251.457 28.0978C247.169 25.4497 241.692 25.765 236.821 26.187L236.728 26.1963ZM193.791 30.0502C194.166 28.6079 193.856 27.8381 193.61 27.4485C192.374 25.496 188.262 26.0711 185.317 26.4792C183.044 26.7946 181.159 27.4114 180.405 27.6015C151.78 34.6601 144.445 82.8269 191.323 54.2728C192.499 53.5075 193.008 53.5725 193.263 53.7348C194.509 54.5232 192.064 59.249 193.698 60.6449C194.254 61.118 195.087 61.0391 195.583 60.9464C209.089 62.8061 210.414 54.2496 214.493 44.6821C214.729 44.26 215.072 43.5319 214.776 43.1192C214.53 42.776 213.947 42.8084 213.757 42.8177C212.437 42.878 206.26 42.9615 197.745 43.0728C178.576 53.8229 172.663 54.9823 171.426 53.3731C168.889 50.0664 178.733 33.765 185.725 34.9198C186.211 34.9986 186.799 35.1841 187.452 35.5969C188.406 35.8288 189.147 35.736 189.624 35.6154C191.74 35.0867 193.346 32.8838 193.791 30.0502ZM144.33 45.4241C142.774 48.8884 139.491 53.3081 137.56 52.6774C135.555 52.0235 135.069 45.9157 137.027 41.2085C138.856 36.8166 143.135 32.8606 145.015 33.7372C146.992 34.6601 146.339 40.9395 144.325 45.4195L144.33 45.4241ZM161.716 26.4792C160.364 26.2705 159.406 26.1917 159.114 26.1685C157.132 26.0294 155.827 26.1685 154.127 26.1685C149.988 26.1824 147.867 26.1963 145.603 26.3679C145.603 26.3679 143.64 26.521 142.093 26.7297C136.893 27.4392 127.132 33.1482 122.104 43.954C121.094 46.1244 116.978 55.998 120.205 60.5104C122.942 64.3411 129.336 63.3116 133.643 60.1997C135.384 59.1794 136.967 57.8994 138.94 57.5933C139.996 57.5238 140.065 58.3864 140.787 59.2211C141.227 59.7313 141.672 59.9817 142.538 60.3759C144.607 61.3174 146.585 60.2461 150.687 60.1487C152.896 60.0977 153.59 60.4548 154.146 60.2414C154.257 60.1997 154.4 60.1348 154.526 59.991C155.072 59.3742 154.461 58.0525 154.169 57.2362C154.169 57.2362 154.002 56.7678 153.748 52.7331C153.535 49.3615 155.734 39.4601 163.527 32.8792C166.055 30.7459 168.509 29.5169 168.176 28.4039C167.884 27.4253 165.606 27.0728 161.712 26.4699L161.716 26.4792ZM308.123 45.4241C306.567 48.8884 303.285 53.3081 301.354 52.6774C299.349 52.0235 298.863 45.9157 300.821 41.2085C302.65 36.8166 306.929 32.8606 308.809 33.7372C310.786 34.6601 310.133 40.9395 308.119 45.4195L308.123 45.4241ZM325.51 26.4792C324.158 26.2705 323.2 26.1917 322.908 26.1685C320.926 26.0294 319.62 26.1685 317.921 26.1685C313.782 26.1824 311.661 26.1963 309.397 26.3679C309.397 26.3679 307.433 26.521 305.887 26.7297C300.687 27.4392 290.926 33.1482 285.898 43.954C284.888 46.1244 280.772 55.998 283.999 60.5104C286.736 64.3411 293.13 63.3116 297.436 60.1997C299.177 59.1794 300.761 57.8994 302.733 57.5933C303.789 57.5238 303.859 58.3864 304.581 59.2211C305.021 59.7313 305.465 59.9817 306.331 60.3759C308.401 61.3174 310.378 60.2461 314.481 60.1487C316.689 60.0977 317.384 60.4548 317.94 60.2414C318.051 60.1997 318.194 60.1348 318.319 59.991C318.866 59.3742 318.254 58.0525 317.963 57.2362C317.963 57.2362 317.796 56.7678 317.541 52.7331C317.328 49.3615 319.528 39.4601 327.321 32.8792C329.849 30.7459 332.303 29.5169 331.969 28.4039C331.678 27.4253 329.4 27.0728 325.506 26.4699L325.51 26.4792ZM124.771 27.3882C124.424 26.3679 122.108 26.2891 121.595 26.2659C114.079 25.983 106.551 26.2427 99.0309 26.0711C98.6141 26.0618 97.489 26.0201 96.4425 26.6972C95.4563 27.3372 95.0071 28.2972 94.8497 28.7146C90.4416 40.4015 88.2329 46.245 86.7003 50.6507C84.5657 56.7817 82.3524 61.271 83.7832 62.3516C84.0517 62.5556 84.2508 62.4861 85.8714 62.4258C89.247 62.2913 88.8719 62.5603 92.3724 62.4119C93.5486 62.3609 95.1136 62.2681 96.9704 62.0733C98.966 57.9643 100.415 54.6438 101.378 52.3389C102.142 50.5209 103.018 48.3505 104.578 44.7192C105.324 42.9847 105.949 41.5656 106.361 40.638C106.574 40.0722 106.782 39.5111 106.995 38.9453C107.504 37.2479 108.634 36.4038 109.319 36.6032C109.968 36.7934 110.185 37.9111 110.218 38.0734C111.176 40.2299 111.806 42.8595 113.848 44.0096C114.445 44.3435 115.121 44.6589 115.969 44.5847C119.233 44.2971 121.344 38.2079 124.127 30.194C124.391 29.4288 124.6 28.7981 124.729 28.4039C124.873 27.9586 124.854 27.6526 124.766 27.3928L124.771 27.3882ZM89.4229 26.0711C82.1903 25.8949 78.5879 26.0897 75.8468 26.085C71.2396 26.085 66.1971 26.1036 61.6548 27.4902C59.8073 28.0468 57.9829 28.8212 56.2141 29.9065C56.2141 29.9065 54.0332 31.2514 52.1024 33.1621C48.5509 36.6821 38.5447 50.5765 43.6149 58.34C45.9394 61.9017 50.9633 63.4368 51.857 63.6919C51.8986 63.7058 51.9264 63.7104 51.9773 63.7243C54.7602 64.5035 58.3672 65.1156 63.03 65.1759C62.5993 66.8084 61.8492 69.0391 60.4925 71.4692C58.0292 75.8889 54.9732 78.4536 53.2461 79.8773C47.9351 84.2506 42.6704 85.8553 41.3785 86.2309C27.4226 90.2518 15.5782 83.1608 13.8418 80.726C13.7307 80.5683 13.6242 80.406 13.6242 80.406C13.6242 80.406 11.3831 77.577 12.1147 74.1173C13.0501 69.6744 18.8334 66.5765 23.8295 65.8437C33.4838 64.4339 48.2082 70.6901 52.8201 70.7829C53.7693 70.8014 53.885 70.551 53.9082 70.5C54.2184 69.7811 49.8242 67.2397 49.477 67.0356C26.9689 54.0919 12.3972 60.2229 12.3972 60.2229C9.92921 61.2942 2.80774 64.3829 0.636112 71.4646C-1.18824 77.4193 1.47883 82.9521 1.60385 83.1979C2.56696 85.1272 3.88198 86.704 5.71097 88.2808C13.1566 94.6993 23.2414 96.0257 26.7281 96.4477C31.9233 97.0738 41.1748 98.0709 51.556 93.5445C59.5387 90.0663 64.3867 85.0066 65.8637 83.3834C69.2902 79.6176 71.3692 76.0002 73.1102 72.9162C73.6473 71.9701 75.1429 69.2663 78.3333 61.5446C84.3527 46.9684 86.265 41.8299 86.265 41.8299C86.2835 41.7743 86.3206 41.6861 86.3391 41.6305C90.1962 31.321 92.1548 27.8149 90.8676 26.521C90.4462 26.0989 89.8443 26.0757 89.4183 26.0665L89.4229 26.0711ZM72.6518 36.005C72.4203 38.8154 67.9613 52.2322 63.3356 56.0072C58.7099 59.7823 58.6311 54.6762 58.2792 52.8073C57.9227 50.9383 60.9417 39.7383 66.5351 34.674C72.1286 29.6096 72.9204 32.8189 72.6611 36.005H72.6518Z" fill="url(#paint1_radial_737_4154)"/>
<path d="M6.6537 12.1832C4.83768 12.1832 3.42713 11.697 2.42203 10.7246C1.41694 9.7408 0.914395 8.19646 0.914395 6.09157C0.914395 4.70739 1.14854 3.56915 1.61682 2.67686C2.09652 1.77313 2.78181 1.10392 3.67269 0.669215C4.57499 0.223072 5.65432 0 6.91069 0C7.66451 0 8.37264 0.0857967 9.03509 0.25739C9.69754 0.428984 10.28 0.692094 10.7826 1.04672C11.2965 1.38991 11.6963 1.82461 11.9818 2.35083C12.2674 2.87705 12.4101 3.50051 12.4101 4.2212H10.1144C10.1144 3.8437 10.0288 3.51195 9.85744 3.22596C9.69754 2.92853 9.46911 2.68258 9.17215 2.48811C8.88661 2.2822 8.55539 2.13348 8.17848 2.04196C7.80157 1.93901 7.40181 1.88753 6.97922 1.88753C6.35103 1.88753 5.79709 1.97333 5.31739 2.14492C4.84911 2.30507 4.45506 2.55675 4.13526 2.89993C3.82688 3.23168 3.59274 3.64923 3.43284 4.15257C3.28436 4.65591 3.21012 5.24505 3.21012 5.91998V6.28033C3.21012 7.20693 3.34147 7.96767 3.60416 8.56252C3.86686 9.15738 4.2609 9.59781 4.78629 9.88379C5.3231 10.1583 5.98555 10.2956 6.77363 10.2956C7.4475 10.2956 8.03571 10.1927 8.53825 9.98675C9.05222 9.78084 9.45197 9.48341 9.73751 9.09446C10.0345 8.69408 10.183 8.2079 10.183 7.63592V7.5158H6.43098V5.66259H12.4101V11.9772H10.8168L10.6284 10.6731C10.2857 11.0163 9.92026 11.3023 9.53193 11.5311C9.14359 11.7484 8.71529 11.9086 8.24701 12.0116C7.77872 12.126 7.24762 12.1832 6.6537 12.1832Z" fill="black"/>
<path d="M14.7221 11.9772V2.95141H16.4696L16.6409 4.37564H16.7608C16.875 4.08965 17.0121 3.82654 17.172 3.58631C17.3433 3.33464 17.5603 3.13444 17.823 2.98573C18.0857 2.82558 18.4055 2.7455 18.7824 2.7455C18.9652 2.7455 19.1308 2.76266 19.2792 2.79698C19.4391 2.8313 19.5591 2.86561 19.639 2.89993V4.87326H19.0051C18.6511 4.87326 18.337 4.92474 18.0629 5.02769C17.7887 5.11921 17.5546 5.26793 17.3604 5.47384C17.1777 5.67975 17.0406 5.93714 16.9493 6.24601C16.8579 6.55488 16.8122 6.91522 16.8122 7.32705V11.9772H14.7221Z" fill="black"/>
<path d="M23.7903 12.1832C22.9222 12.1832 22.2141 11.9486 21.6658 11.4796C21.129 10.9992 20.8606 10.1869 20.8606 9.04299V2.95141H22.9508V8.66548C22.9508 8.98579 22.985 9.25462 23.0536 9.47197C23.1335 9.67788 23.242 9.84948 23.3791 9.98675C23.5276 10.1126 23.7046 10.2041 23.9102 10.2613C24.1158 10.3185 24.3442 10.3471 24.5955 10.3471C24.9724 10.3471 25.3093 10.2556 25.6063 10.0725C25.9147 9.88951 26.1545 9.63784 26.3258 9.31754C26.5086 8.98579 26.5999 8.614 26.5999 8.20218V2.95141H28.6901V11.9772H26.9597L26.7884 10.7761H26.6685C26.4629 11.0506 26.2173 11.2966 25.9318 11.5139C25.6577 11.7198 25.3379 11.88 24.9724 11.9944C24.6183 12.1202 24.2243 12.1832 23.7903 12.1832Z" fill="black"/>
<path d="M30.9174 14.9458V2.95141H32.6478L32.8191 4.15257H32.939C33.236 3.68354 33.6243 3.33464 34.104 3.10585C34.5837 2.86561 35.1148 2.7455 35.6973 2.7455C36.4397 2.7455 37.0736 2.91137 37.599 3.24312C38.1358 3.57487 38.547 4.08965 38.8325 4.78746C39.1295 5.48528 39.278 6.38328 39.278 7.48148C39.278 8.5568 39.1295 9.44337 38.8325 10.1412C38.5356 10.839 38.1244 11.3538 37.599 11.6855C37.085 12.0173 36.4911 12.1832 35.8172 12.1832C35.4061 12.1832 35.0292 12.1374 34.6865 12.0459C34.3439 11.9544 34.0412 11.8171 33.7785 11.6341C33.5158 11.4396 33.2931 11.2051 33.1103 10.9305H33.0075V14.9458H30.9174ZM35.0463 10.3814C35.5603 10.3814 35.9657 10.2842 36.2627 10.0897C36.5711 9.8838 36.7881 9.57493 36.9137 9.1631C37.0508 8.75128 37.1193 8.23078 37.1193 7.6016V7.36137C37.1193 6.72075 37.0508 6.19453 36.9137 5.78271C36.7881 5.35944 36.5711 5.05057 36.2627 4.8561C35.9657 4.65019 35.5603 4.54723 35.0463 4.54723C34.578 4.54723 34.1897 4.65591 33.8813 4.87326C33.5843 5.09061 33.3616 5.41092 33.2131 5.83418C33.0761 6.24601 33.0075 6.75507 33.0075 7.36137V7.56728C33.0075 8.01342 33.0475 8.41381 33.1275 8.76844C33.2074 9.11162 33.3273 9.40333 33.4872 9.64356C33.6586 9.8838 33.8699 10.0668 34.1211 10.1927C34.3838 10.3185 34.6922 10.3814 35.0463 10.3814Z" fill="black"/>
<path d="M45.0652 12.1832C44.0829 12.1832 43.2606 12.0173 42.5981 11.6855C41.9357 11.3423 41.4389 10.8218 41.1076 10.124C40.7764 9.42621 40.6108 8.53964 40.6108 7.46432C40.6108 6.37756 40.7764 5.491 41.1076 4.80462C41.4389 4.10681 41.9357 3.59203 42.5981 3.26028C43.2606 2.91709 44.0829 2.7455 45.0652 2.7455C46.0588 2.7455 46.8812 2.91709 47.5322 3.26028C48.1947 3.59203 48.6915 4.10681 49.0227 4.80462C49.354 5.491 49.5196 6.37756 49.5196 7.46432C49.5196 8.53964 49.354 9.42621 49.0227 10.124C48.6915 10.8218 48.1947 11.3423 47.5322 11.6855C46.8812 12.0173 46.0588 12.1832 45.0652 12.1832ZM45.0652 10.4672C45.6134 10.4672 46.0531 10.3643 46.3844 10.1583C46.727 9.94099 46.9726 9.62068 47.1211 9.19742C47.281 8.76272 47.3609 8.22506 47.3609 7.58444V7.34421C47.3609 6.70359 47.281 6.17165 47.1211 5.74839C46.9726 5.31368 46.727 4.99338 46.3844 4.78746C46.0531 4.57011 45.6134 4.46143 45.0652 4.46143C44.5169 4.46143 44.0715 4.57011 43.7289 4.78746C43.3976 4.99338 43.1521 5.31368 42.9922 5.74839C42.8437 6.17165 42.7695 6.70359 42.7695 7.34421V7.58444C42.7695 8.22506 42.8437 8.76272 42.9922 9.19742C43.1521 9.62068 43.3976 9.94099 43.7289 10.1583C44.0715 10.3643 44.5169 10.4672 45.0652 10.4672Z" fill="black"/>
<defs>
<linearGradient id="paint0_linear_737_4154" x1="166" y1="0" x2="166" y2="97" gradientUnits="userSpaceOnUse">
<stop stop-color="#FE9F4F"/>
<stop offset="0.450069" stop-color="#FE5200"/>
<stop offset="1" stop-color="#B25505"/>
</linearGradient>
<radialGradient id="paint1_radial_737_4154" cx="0" cy="0" r="1" gradientUnits="userSpaceOnUse" gradientTransform="translate(332) rotate(164.036) scale(352.68 216.862)">
<stop offset="0.582725" stop-color="#0E804B"/>
<stop offset="1" stop-color="#629E3A"/>
</radialGradient>
</defs>
</svg>
