<svg width="135" height="40" viewBox="0 0 135 40" fill="none" xmlns="http://www.w3.org/2000/svg">
<path fill-rule="evenodd" clip-rule="evenodd" d="M84.4358 17.6896C87.1357 17.6896 89.3367 15.5211 89.3367 12.861C89.3367 10.2009 87.1357 8.03239 84.4358 8.03239C81.7358 8.03239 79.5348 10.2009 79.5348 12.861C79.5348 15.5211 81.7358 17.6896 84.4358 17.6896Z" fill="url(#paint0_linear_1256_4011)"/>
<path fill-rule="evenodd" clip-rule="evenodd" d="M107.448 22.6202C105.653 22.2882 105.171 21.3421 104.205 21.6037C103.577 21.7743 103.185 22.3364 103.062 22.5108C102.763 22.9411 102.753 22.941 102.522 23.5218C102.405 23.8148 102.27 24.6756 102.364 24.9965C102.426 25.2117 102.562 25.3619 102.66 25.451C103.885 25.9388 107.711 27.3097 111.066 25.9908C112.399 25.4658 112.989 24.7794 113.181 24.5364C113.996 23.5051 114.469 21.8782 113.97 20.5148C113.092 18.1144 109.743 18.0087 109.771 16.5228C109.788 15.5582 111.321 14.8922 111.411 14.8533C112.234 14.5008 113.043 14.5954 114.007 14.7086C115.453 14.8774 116.161 15.2911 116.653 14.8681C116.905 14.6511 117.007 14.2949 117.061 14.1039C117.193 13.6382 117.142 13.1912 117.065 12.9667C116.696 11.889 114.327 11.7424 112.977 11.6589C112.217 11.6126 110.984 11.5959 109.53 11.9019C107.732 12.2804 106.939 12.8684 106.64 13.1114C106.529 13.2005 106.452 13.2728 106.431 13.2914C105.923 13.7495 104.84 14.8885 104.93 16.4245C104.994 17.5319 105.642 18.3203 105.83 18.5373C107.192 20.1048 109.037 19.6021 109.551 20.8784C109.763 21.4033 109.69 22.0823 109.33 22.4384C108.88 22.8855 108.071 22.7352 107.451 22.6202H107.448ZM94.0419 17.7341C93.4093 19.1773 92.9988 21.0064 93.6277 22.3475C94.1323 23.3993 95.2149 23.3196 96.0038 22.5776C96.8925 21.7855 97.4893 20.5853 97.8339 19.4407C99.278 14.2764 96.3295 12.8573 94.0626 17.6896L94.0438 17.7341H94.0419ZM96.2599 11.6793C93.9647 11.9205 91.6526 12.5327 90.2876 14.3932C88.9451 16.1147 87.9435 19.0363 87.966 21.3662C88.015 22.8929 88.3934 24.3806 89.3763 25.2803C90.0428 25.7997 90.9183 25.7979 91.743 25.8016C92.5677 25.7904 93.5637 25.796 94.7611 25.7237C96.3597 25.6216 97.9996 25.4027 99.3835 24.5624C103.533 22.1676 105.785 14.6826 102.249 12.4399C100.506 11.3807 98.2783 11.5068 96.2975 11.6756L96.2599 11.6793ZM78.8005 13.2209C78.953 12.644 78.8268 12.336 78.7271 12.1802C78.2243 11.3992 76.5524 11.6293 75.3549 11.7925C74.4305 11.9186 73.6642 12.1654 73.3573 12.2414C61.7177 15.0647 58.7353 34.3309 77.7969 22.9096C78.2752 22.6035 78.4823 22.6295 78.5858 22.6944C79.0923 23.0098 78.0982 24.9 78.7628 25.4584C78.9888 25.6476 79.3277 25.6161 79.5291 25.579C85.0213 26.3228 85.5598 22.9003 87.2186 19.0734C87.3146 18.9046 87.4539 18.6134 87.3334 18.4483C87.2336 18.311 86.9964 18.324 86.9192 18.3277C86.3826 18.3518 83.8709 18.3852 80.4084 18.4297C72.6135 22.7297 70.2092 23.1934 69.7065 22.5497C68.6747 21.2271 72.6776 14.7067 75.5206 15.1686C75.7183 15.2002 75.9574 15.2744 76.2229 15.4395C76.6108 15.5322 76.912 15.4951 77.1059 15.4469C77.9664 15.2354 78.6197 14.3543 78.8005 13.2209ZM58.6882 19.3702C58.0556 20.7559 56.7207 22.5238 55.9355 22.2715C55.1203 22.0099 54.9226 19.5669 55.719 17.684C56.4627 15.9273 58.2024 14.345 58.9669 14.6956C59.7708 15.0647 59.5053 17.5764 58.6863 19.3684L58.6882 19.3702ZM65.7582 11.7925C65.2084 11.709 64.8187 11.6775 64.7 11.6682C63.8942 11.6126 63.3632 11.6682 62.6723 11.6682C60.989 11.6738 60.1267 11.6793 59.206 11.748C59.206 11.748 58.4077 11.8092 57.7788 11.8927C55.6644 12.1765 51.6954 14.46 49.6507 18.7822C49.2402 19.6503 47.5664 23.5997 48.8787 25.4046C49.9915 26.9368 52.5916 26.525 54.3427 25.2803C55.0506 24.8722 55.6945 24.3602 56.4966 24.2378C56.9259 24.21 56.9541 24.555 57.2478 24.8889C57.4267 25.0929 57.6075 25.1931 57.9596 25.3508C58.8012 25.7274 59.6051 25.2989 61.2733 25.2599C62.1714 25.2395 62.4538 25.3823 62.6798 25.297C62.725 25.2803 62.7833 25.2543 62.8342 25.1968C63.0563 24.9501 62.8078 24.4214 62.6892 24.0949C62.6892 24.0949 62.6214 23.9076 62.5179 22.2937C62.4312 20.9451 63.3256 16.9847 66.4944 14.3524C67.5224 13.4991 68.5203 13.0075 68.3847 12.5623C68.2661 12.1709 67.3398 12.0299 65.7563 11.7888L65.7582 11.7925ZM125.291 19.3702C124.658 20.7559 123.324 22.5238 122.538 22.2715C121.723 22.0099 121.525 19.5669 122.322 17.684C123.066 15.9273 124.805 14.345 125.57 14.6956C126.374 15.0647 126.108 17.5764 125.289 19.3684L125.291 19.3702ZM132.361 11.7925C131.811 11.709 131.422 11.6775 131.303 11.6682C130.497 11.6126 129.966 11.6682 129.275 11.6682C127.592 11.6738 126.73 11.6793 125.809 11.748C125.809 11.748 125.011 11.8092 124.382 11.8927C122.267 12.1765 118.298 14.46 116.254 18.7822C115.843 19.6503 114.169 23.5997 115.482 25.4046C116.594 26.9368 119.194 26.525 120.946 25.2803C121.653 24.8722 122.297 24.3602 123.099 24.2378C123.529 24.21 123.557 24.555 123.851 24.8889C124.03 25.0929 124.21 25.1931 124.562 25.3508C125.404 25.7274 126.208 25.2989 127.876 25.2599C128.774 25.2395 129.057 25.3823 129.283 25.297C129.328 25.2803 129.386 25.2543 129.437 25.1968C129.659 24.9501 129.411 24.4214 129.292 24.0949C129.292 24.0949 129.224 23.9076 129.121 22.2937C129.034 20.9451 129.928 16.9847 133.097 14.3524C134.125 13.4991 135.123 13.0075 134.988 12.5623C134.869 12.1709 133.943 12.0299 132.359 11.7888L132.361 11.7925ZM50.7352 12.1561C50.594 11.748 49.6525 11.7164 49.4436 11.7072C46.3877 11.594 43.3263 11.6979 40.2686 11.6293C40.0991 11.6256 39.6416 11.6089 39.2161 11.8797C38.815 12.1357 38.6324 12.5197 38.5684 12.6866C36.7759 17.3613 35.8778 19.6986 35.2546 21.4608C34.3867 23.9132 33.4867 25.7088 34.0685 26.141C34.1777 26.2227 34.2586 26.1948 34.9176 26.1707C36.2902 26.1169 36.1377 26.2245 37.5611 26.1651C38.0393 26.1447 38.6757 26.1076 39.4307 26.0297C40.2422 24.3862 40.8315 23.058 41.2232 22.1361C41.5338 21.4089 41.8897 20.5407 42.5242 19.0883C42.8273 18.3945 43.0815 17.8269 43.2491 17.4559C43.3357 17.2295 43.4204 17.0051 43.507 16.7788C43.7141 16.0998 44.1735 15.7622 44.4522 15.842C44.7158 15.9181 44.8043 16.3651 44.8175 16.43C45.2072 17.2926 45.4633 18.3444 46.2936 18.8045C46.5365 18.938 46.8114 19.0642 47.1559 19.0345C48.4833 18.9195 49.3419 16.4838 50.4735 13.2784C50.5808 12.9723 50.6655 12.72 50.7182 12.5623C50.7766 12.3843 50.7691 12.2618 50.7333 12.1579L50.7352 12.1561ZM36.3617 11.6293C33.4208 11.5588 31.9559 11.6367 30.8413 11.6348C28.9679 11.6348 26.9175 11.6422 25.0705 12.1969C24.3192 12.4195 23.5774 12.7293 22.8581 13.1634C22.8581 13.1634 21.9713 13.7013 21.1862 14.4656C19.7421 15.8735 15.6733 21.4312 17.735 24.5364C18.6802 25.9611 20.723 26.5751 21.0864 26.6771C21.1034 26.6827 21.1147 26.6845 21.1354 26.6901C22.2669 27.0018 23.7337 27.2466 25.6297 27.2707C25.4546 27.9237 25.1495 28.816 24.5979 29.788C23.5962 31.5558 22.3535 32.5816 21.6513 33.1511C19.4917 34.9004 17.3509 35.5422 16.8256 35.6925C11.1508 37.3008 6.33452 34.4645 5.62846 33.4906C5.58327 33.4275 5.53997 33.3626 5.53997 33.3626C5.53997 33.3626 4.62868 32.231 4.92617 30.8472C5.3065 29.0701 7.65814 27.8309 9.6897 27.5379C13.6154 26.9739 19.6027 29.4763 21.478 29.5134C21.864 29.5209 21.9111 29.4207 21.9205 29.4003C22.0466 29.1128 20.2599 28.0962 20.1186 28.0146C10.9663 22.8373 5.04102 25.2896 5.04102 25.2896C4.03748 25.7181 1.1417 26.9535 0.25866 29.7861C-0.483171 32.168 0.601333 34.381 0.652169 34.4793C1.0438 35.251 1.57852 35.8817 2.32223 36.5124C5.3498 39.0797 9.45059 39.6103 10.8683 39.7791C12.9809 40.0295 16.7427 40.4283 20.964 38.6178C24.21 37.2266 26.1813 35.2028 26.7819 34.5535C28.1752 33.0472 29.0206 31.6003 29.7286 30.3668C29.947 29.9883 30.5551 28.9069 31.8524 25.8183C34.3 19.988 35.0776 17.9326 35.0776 17.9326C35.0852 17.9103 35.1002 17.8751 35.1078 17.8528C36.6762 13.7291 37.4726 12.3267 36.9492 11.8092C36.7778 11.6404 36.5331 11.6311 36.3598 11.6274L36.3617 11.6293ZM29.5422 15.6027C29.448 16.7268 27.6349 22.0934 25.7539 23.6034C23.873 25.1134 23.841 23.071 23.6979 22.3234C23.5529 21.5758 24.7805 17.096 27.0549 15.0703C29.3294 13.0446 29.6514 14.3283 29.5459 15.6027H29.5422Z" fill="url(#paint1_radial_1256_4011)"/>
<path d="M1.81387 5.99188L0.0722608 1.28348H1.05453L2.19006 4.52308C2.20863 4.56884 2.22721 4.62146 2.24579 4.68094C2.26437 4.74042 2.28294 4.79762 2.30152 4.85253C2.3201 4.90286 2.33635 4.94862 2.35028 4.9898H2.38512C2.39905 4.95319 2.41298 4.90973 2.42692 4.85939C2.44549 4.80906 2.46407 4.75644 2.48265 4.70153C2.50122 4.64205 2.5198 4.58485 2.53838 4.52994L3.66694 1.28348H4.60741L2.8658 5.99188H1.81387Z" fill="black"/>
<path d="M5.20581 5.99188V1.28348H6.11145V5.99188H5.20581Z" fill="black"/>
<path d="M6.67731 5.99188L8.53735 1.28348H9.67984L11.5468 5.99188H10.5646L10.1814 4.9898H7.99397L7.61081 5.99188H6.67731ZM8.27959 4.23481H9.88884L9.40815 2.95819C9.38957 2.91243 9.36635 2.85524 9.33849 2.7866C9.31527 2.71339 9.28972 2.6356 9.26186 2.55324C9.23399 2.4663 9.20613 2.37936 9.17826 2.29243C9.15039 2.20549 9.12485 2.1277 9.10163 2.05906H9.0668C9.03893 2.15058 9.0041 2.25582 8.9623 2.37479C8.92515 2.49376 8.88799 2.60586 8.85084 2.7111C8.81368 2.81634 8.78349 2.89871 8.76027 2.95819L8.27959 4.23481Z" fill="black"/>
<path d="M14.1128 6.07424C13.6252 6.07424 13.2072 5.98959 12.8589 5.82029C12.5152 5.65099 12.2505 5.38789 12.0647 5.03098C11.8836 4.6695 11.793 4.20507 11.793 3.63768C11.793 2.80948 11.9974 2.19634 12.4061 1.79825C12.8148 1.40016 13.3837 1.20112 14.1128 1.20112C14.5076 1.20112 14.8629 1.26747 15.1787 1.40016C15.4992 1.53286 15.7523 1.73419 15.938 2.00416C16.1285 2.26955 16.2237 2.60815 16.2237 3.01996H15.2971C15.2971 2.79118 15.246 2.599 15.1439 2.44342C15.0463 2.28327 14.9093 2.16202 14.7328 2.07965C14.5564 1.99729 14.3543 1.95611 14.1268 1.95611C13.811 1.95611 13.5486 2.01788 13.3396 2.14143C13.1306 2.2604 12.975 2.43885 12.8728 2.67678C12.7753 2.91472 12.7265 3.20985 12.7265 3.56218V3.71318C12.7265 4.07008 12.7753 4.36751 12.8728 4.60544C12.975 4.84338 13.1282 5.02183 13.3326 5.1408C13.5416 5.25977 13.8063 5.31925 14.1268 5.31925C14.3683 5.31925 14.5796 5.28036 14.7607 5.20257C14.9418 5.12021 15.0812 5.00124 15.1787 4.84566C15.2809 4.68552 15.332 4.49105 15.332 4.26226H16.2237C16.2237 4.67408 16.1308 5.01497 15.945 5.28493C15.7592 5.55032 15.5061 5.74937 15.1857 5.88206C14.8699 6.01018 14.5122 6.07424 14.1128 6.07424ZM14.0919 7.24104C13.9758 7.24104 13.8551 7.23647 13.7297 7.22732C13.6043 7.21817 13.4905 7.20444 13.3883 7.18614V6.84982H14.0292C14.1221 6.84982 14.1941 6.83838 14.2452 6.8155C14.3009 6.79263 14.3288 6.74916 14.3288 6.6851C14.3288 6.63019 14.3079 6.58901 14.2661 6.56155C14.2289 6.5341 14.1546 6.52037 14.0432 6.52037H13.7366L13.8342 5.91638H14.3776L14.3358 6.22524C14.4565 6.22981 14.568 6.24812 14.6701 6.28015C14.7723 6.31675 14.8536 6.36709 14.914 6.43115C14.9743 6.4952 15.0045 6.57986 15.0045 6.6851C15.0045 6.79949 14.9743 6.89329 14.914 6.9665C14.8536 7.03971 14.777 7.09462 14.6841 7.13123C14.5912 7.17241 14.4913 7.19986 14.3845 7.21359C14.2824 7.23189 14.1848 7.24104 14.0919 7.24104Z" fill="black"/>
<path d="M16.5351 5.99188L18.3951 1.28348H19.5376L21.4046 5.99188H20.4224L20.0392 4.9898H17.8517L17.4686 5.99188H16.5351ZM18.1374 4.23481H19.7466L19.2659 2.95819C19.2473 2.91243 19.2241 2.85524 19.1963 2.7866C19.173 2.71339 19.1475 2.6356 19.1196 2.55324C19.0918 2.4663 19.0639 2.37936 19.036 2.29243C19.0082 2.20549 18.9826 2.1277 18.9594 2.05906H18.9246C18.8967 2.15058 18.8619 2.25582 18.8201 2.37479C18.7829 2.49376 18.7458 2.60586 18.7086 2.7111C18.6715 2.81634 18.6413 2.89871 18.618 2.95819L18.1374 4.23481ZM17.8099 0.803035C17.8099 0.656613 17.8308 0.523917 17.8726 0.404949C17.9191 0.281406 17.9911 0.183028 18.0886 0.109817C18.1861 0.0366055 18.3115 0 18.4648 0C18.5855 0 18.697 0.0205907 18.7992 0.061772C18.906 0.0983774 19.0105 0.137271 19.1127 0.178452C19.2148 0.219633 19.3193 0.240224 19.4262 0.240224C19.4912 0.240224 19.5423 0.224209 19.5794 0.192179C19.6212 0.155574 19.6468 0.0915139 19.656 0H20.1298C20.1298 0.141846 20.1065 0.274542 20.0601 0.398086C20.0183 0.517054 19.9486 0.615431 19.8511 0.693218C19.7582 0.76643 19.6328 0.803035 19.4749 0.803035C19.3588 0.803035 19.2473 0.782444 19.1405 0.741263C19.0337 0.700082 18.9292 0.6589 18.827 0.617719C18.7295 0.576538 18.6273 0.555947 18.5205 0.555947C18.4601 0.555947 18.4091 0.57425 18.3673 0.610856C18.3255 0.647461 18.2999 0.711521 18.2906 0.803035H17.8099Z" fill="black"/>
<path d="M24.0612 6.07424C23.5642 6.07424 23.1346 5.9873 22.7724 5.81343C22.4101 5.63497 22.1315 5.36501 21.9364 5.00353C21.746 4.64205 21.6508 4.18676 21.6508 3.63768C21.6508 3.08402 21.746 2.62874 21.9364 2.27183C22.1315 1.91035 22.4101 1.64268 22.7724 1.4688C23.1346 1.29035 23.5642 1.20112 24.0612 1.20112C24.5628 1.20112 24.9924 1.29035 25.35 1.4688C25.7122 1.64268 25.9886 1.91035 26.179 2.27183C26.374 2.62874 26.4716 3.08402 26.4716 3.63768C26.4716 4.18676 26.374 4.64205 26.179 5.00353C25.9886 5.36501 25.7122 5.63497 25.35 5.81343C24.9924 5.9873 24.5628 6.07424 24.0612 6.07424ZM24.0612 5.31925C24.3027 5.31925 24.514 5.28493 24.6951 5.2163C24.8809 5.14766 25.0365 5.047 25.1619 4.9143C25.2873 4.77703 25.3825 4.61002 25.4475 4.41326C25.5125 4.21193 25.545 3.98086 25.545 3.72004V3.56905C25.545 3.30365 25.5125 3.07029 25.4475 2.86896C25.3825 2.66763 25.2873 2.50062 25.1619 2.36792C25.0365 2.23065 24.8809 2.1277 24.6951 2.05906C24.514 1.99043 24.3027 1.95611 24.0612 1.95611C23.8197 1.95611 23.606 1.99043 23.4203 2.05906C23.2391 2.1277 23.0859 2.23065 22.9605 2.36792C22.8351 2.50062 22.7399 2.66763 22.6749 2.86896C22.6145 3.07029 22.5843 3.30365 22.5843 3.56905V3.72004C22.5843 3.98086 22.6145 4.21193 22.6749 4.41326C22.7399 4.61002 22.8351 4.77703 22.9605 4.9143C23.0859 5.047 23.2391 5.14766 23.4203 5.2163C23.606 5.28493 23.8197 5.31925 24.0612 5.31925Z" fill="black"/>
<defs>
<linearGradient id="paint0_linear_1256_4011" x1="67.5" y1="0" x2="67.5" y2="40" gradientUnits="userSpaceOnUse">
<stop stop-color="#FE9F4F"/>
<stop offset="0.450069" stop-color="#FE5200"/>
<stop offset="1" stop-color="#B25505"/>
</linearGradient>
<radialGradient id="paint1_radial_1256_4011" cx="0" cy="0" r="1" gradientUnits="userSpaceOnUse" gradientTransform="translate(135) rotate(163.822) scale(143.563 89.3314)">
<stop offset="0.582725" stop-color="#0E804B"/>
<stop offset="1" stop-color="#629E3A"/>
</radialGradient>
</defs>
</svg>
