<svg width="15" height="10" viewBox="0 0 15 10" fill="none" xmlns="http://www.w3.org/2000/svg">
<path fill-rule="evenodd" clip-rule="evenodd" d="M1.05786 7.52782V4.59317H2.57249C3.19314 4.59317 3.717 4.3852 4.14406 3.97505L4.24655 3.87106C5.02664 3.02186 4.97539 1.69896 4.14406 0.913305C3.72839 0.497371 3.15898 0.272073 2.57249 0.283626H0.141113V7.52782H1.05786ZM1.05796 3.70348V1.17321H2.59561C2.92592 1.17321 3.23915 1.3003 3.47264 1.53137C3.96811 2.01663 3.9795 2.82539 3.50112 3.32798C3.26762 3.57639 2.93731 3.71503 2.59561 3.70348H1.05796ZM8.52283 2.95829C8.12994 2.59435 7.5947 2.40949 6.9171 2.40949C6.04591 2.40949 5.39109 2.733 4.95834 3.37423L5.7669 3.88837C6.06299 3.44933 6.46727 3.22981 6.97974 3.22981C7.3043 3.22981 7.61747 3.35112 7.86232 3.57064C8.10147 3.77861 8.23813 4.07901 8.23813 4.39674V4.61048C7.8851 4.41407 7.44096 4.31008 6.89432 4.31008C6.25659 4.31008 5.74412 4.46028 5.36262 4.76646C4.98111 5.07263 4.78751 5.47701 4.78751 5.99115C4.77613 6.45908 4.97542 6.9039 5.32845 7.2043C5.68718 7.5278 6.14271 7.68955 6.67795 7.68955C7.30999 7.68955 7.81107 7.40649 8.19258 6.84035H8.23244V7.5278H9.10932V4.47184C9.10932 3.8306 8.91572 3.32224 8.52283 2.95829ZM6.03467 6.61507C5.84674 6.47643 5.73284 6.25113 5.73284 6.0085C5.73284 5.73699 5.85813 5.51169 6.10301 5.33261C6.35359 5.15352 6.66681 5.06109 7.03699 5.06109C7.54954 5.05532 7.94819 5.17085 8.23294 5.40193C8.23294 5.79476 8.07917 6.13559 7.77734 6.42443C7.50398 6.70172 7.1338 6.8577 6.74654 6.8577C6.49027 6.86348 6.23969 6.77682 6.03467 6.61507ZM11.0795 9.70567L14.1429 2.57124H13.1464L11.7286 6.12979H11.7115L10.2595 2.57124H9.26308L11.2731 7.21006L10.1343 9.70567H11.0795Z" fill="#3C4043"/>
</svg>
