<svg width="21" height="56" viewBox="0 0 21 56" fill="none" xmlns="http://www.w3.org/2000/svg">
<path d="M10.5 14.5C11.5609 14.5 12.5783 14.0786 13.3284 13.3284C14.0786 12.5783 14.5 11.5609 14.5 10.5C14.5 9.43913 14.0786 8.42172 13.3284 7.67157C12.5783 6.92143 11.5609 6.5 10.5 6.5C9.43913 6.5 8.42172 6.92143 7.67157 7.67157C6.92143 8.42172 6.5 9.43913 6.5 10.5C6.5 11.5609 6.92143 12.5783 7.67157 13.3284C8.42172 14.0786 9.43913 14.5 10.5 14.5Z" fill="white"/>
<path d="M15.5 19.1623C18.489 17.4332 20.5 14.2015 20.5 10.5C20.5 4.977 16.023 0.5 10.5 0.5C4.977 0.5 0.5 4.977 0.5 10.5C0.5 14.2015 2.51096 17.4332 5.5 19.1623V16.745C5.27148 16.5621 5.05213 16.3658 4.84315 16.1569C3.34285 14.6566 2.5 12.6217 2.5 10.5C2.5 8.37827 3.34285 6.34344 4.84315 4.84315C6.34344 3.34285 8.37827 2.5 10.5 2.5C12.6217 2.5 14.6566 3.34285 16.1569 4.84315C17.6571 6.34344 18.5 8.37827 18.5 10.5C18.5 12.6217 17.6571 14.6566 16.1569 16.1569C15.9479 16.3658 15.7285 16.5621 15.5 16.745V19.1623Z" fill="white"/>
<path d="M9.5 11.5H11.5V43.5H9.5V11.5Z" fill="white"/>
<path d="M10.5 55.5C12.0913 55.5 13.6174 54.8679 14.7426 53.7426C15.8679 52.6174 16.5 51.0913 16.5 49.5C16.5 47.9087 15.8679 46.3826 14.7426 45.2574C13.6174 44.1321 12.0913 43.5 10.5 43.5C8.9087 43.5 7.38258 44.1321 6.25736 45.2574C5.13214 46.3826 4.5 47.9087 4.5 49.5C4.5 51.0913 5.13214 52.6174 6.25736 53.7426C7.38258 54.8679 8.9087 55.5 10.5 55.5Z" fill="white"/>
</svg>
